<svg id="captain" enable-background="new 0 0 300 300" height="512" viewBox="0 0 300 300" width="512" xmlns="http://www.w3.org/2000/svg"><path d="m57.411 60.131c3.727 0 7.234-1.449 9.875-4.082 2.648-2.637 4.113-6.148 4.121-9.891.008-3.738-1.441-7.258-4.082-9.906-2.637-2.648-6.148-4.113-9.891-4.121-.008 0-.02 0-.031 0-3.727 0-7.234 1.449-9.875 4.082-2.648 2.637-4.113 6.148-4.121 9.891-.008 3.738 1.441 7.258 4.082 9.906 2.637 2.648 6.148 4.113 9.891 4.121zm-6.004-14.012c.004-1.602.629-3.109 1.766-4.238 1.133-1.129 2.633-1.75 4.23-1.75h.016c1.602.004 3.109.629 4.238 1.766 1.133 1.137 1.754 2.645 1.75 4.246s-.629 3.109-1.766 4.238c-1.133 1.129-2.633 1.75-4.23 1.75-.008 0-.012 0-.016 0-1.602-.004-3.109-.629-4.238-1.766-1.133-1.136-1.754-2.644-1.75-4.246z"/><path d="m217.434 128.131c-.008 0-.02 0-.031 0-3.727 0-7.234 1.449-9.875 4.082-2.648 2.637-4.113 6.148-4.121 9.891-.008 3.738 1.441 7.258 4.082 9.906 2.637 2.648 6.148 4.113 9.891 4.121h.031c3.727 0 7.234-1.449 9.875-4.082 2.648-2.637 4.113-6.148 4.121-9.891.008-3.738-1.441-7.258-4.082-9.906-2.637-2.648-6.148-4.113-9.891-4.121zm4.208 18.25c-1.133 1.129-2.633 1.75-4.23 1.75-.008 0-.012 0-.016 0-1.602-.004-3.109-.629-4.238-1.766-1.133-1.137-1.754-2.645-1.75-4.246s.629-3.109 1.766-4.238c1.133-1.129 2.633-1.75 4.23-1.75h.016c1.602.004 3.109.629 4.238 1.766 1.133 1.137 1.754 2.645 1.75 4.246s-.63 3.109-1.766 4.238z"/><path d="m40.964 93.619c-2.478.345-4.207 2.632-3.862 5.11s2.633 4.207 5.11 3.862c2.478-.345 4.207-2.633 3.862-5.11s-2.632-4.207-5.11-3.862z"/><path d="m218.212 50.592c2.478-.345 4.207-2.633 3.862-5.11s-2.632-4.207-5.11-3.862-4.207 2.632-3.862 5.11c.344 2.477 2.632 4.206 5.11 3.862z"/><path d="m256.964 161.619c-2.478.345-4.207 2.632-3.862 5.11s2.633 4.207 5.11 3.862c2.478-.345 4.207-2.633 3.862-5.11s-2.632-4.207-5.11-3.862z"/><path d="m72.083 160.201c.781.785 1.805 1.176 2.832 1.176 1.02 0 2.043-.387 2.824-1.168 1.562-1.559 1.57-4.09.008-5.656l-4.511-4.528 4.531-4.515c1.562-1.559 1.57-4.09.008-5.656-1.559-1.566-4.09-1.57-5.656-.008l-4.528 4.512-4.511-4.528c-1.559-1.566-4.09-1.57-5.656-.008-1.562 1.559-1.57 4.09-.008 5.656l4.509 4.526-4.529 4.513c-1.562 1.559-1.57 4.09-.008 5.656.781.785 1.805 1.176 2.832 1.176 1.02 0 2.043-.391 2.824-1.168l4.526-4.51z"/><path d="m257.236 82.025 4.531-4.515c1.562-1.559 1.57-4.09.008-5.656-1.559-1.566-4.09-1.57-5.656-.008l-4.528 4.512-4.511-4.528c-1.559-1.566-4.09-1.57-5.656-.008-1.562 1.559-1.57 4.09-.008 5.656l4.509 4.526-4.529 4.513c-1.562 1.559-1.57 4.09-.008 5.656.781.785 1.805 1.176 2.832 1.176 1.02 0 2.043-.391 2.824-1.168l4.526-4.51 4.513 4.53c.781.785 1.805 1.176 2.832 1.176 1.02 0 2.043-.387 2.824-1.168 1.562-1.559 1.57-4.09.008-5.656z"/><path d="m184.372 172.131h-20.965v-8.857c10.752-5.517 18.932-15.313 22.294-27.143h1.706c6.617 0 12-5.383 12-12s-5.383-12-12-12v-.519c2.724-2.417 4.297-5.227 4.297-8.427 0-.071-.029-.143-.031-.214.435-.42.809-.906 1.02-1.501l4.288-12.081 2.63-6.138c4.004-9.336.371-20.176-8.449-25.215l-34.695-19.824c-8.055-4.602-18.062-4.602-26.117 0l-34.697 19.825c-8.82 5.039-12.453 15.879-8.449 25.215l2.63 6.138 4.288 12.081c.211.595.585 1.081 1.02 1.501-.002.071-.031.143-.031.214 0 3.214 1.59 6.033 4.335 8.457-.003.067-.039.124-.039.191v.297c-6.617 0-12 5.383-12 12s5.383 12 12 12h1.706c3.362 11.83 11.542 21.626 22.294 27.143v8.857h-24.965c-17.113 0-31.035 13.922-31.035 31.035v60.703c0 2.211 1.789 4 4 4h140c2.211 0 4-1.789 4-4v-60.703c0-17.113-13.922-31.035-31.035-31.035zm19.872 19.439c-1.343 1.357-3.418 1.839-5.266 1.025l-12.938-5.73c-.16-.071-.327-.06-.49-.109l-1.968-6.625h.79c8.473 0 15.87 4.609 19.872 11.439zm-84.767 24.42-16.516-11.012 5.074-14.523 30.375 61.617v2.332l-27.918-22.668 9.594-9.59c.848-.848 1.27-2.027 1.152-3.223-.116-1.191-.764-2.269-1.761-2.933zm23.93-25.992 6.264 4.344-4.764 9.789h-3.074l-4.991-9.58zm-.875 22.133h1.188l3.504 11.945-4.176 12.977-3.508-12.961zm11.876 8.013-3.157-10.768 5.073-10.421.806.559c.68.473 1.477.711 2.277.711.637 0 1.273-.152 1.855-.457 1.316-.688 2.145-2.055 2.145-3.543v-16.094h11.507zm.999-31.56-5.298-3.674 5.298-4.215zm-23.821-.124c-.06-.006-.118-.017-.179-.021v-7.745l5.298 4.215zm-6.034 11.308c1.312.688 2.91.59 4.133-.254l.532-.369 4.943 9.49-3.11 12.441-20.185-40.945h11.542v16.094c0 1.488.828 2.855 2.145 3.543zm21.465 52.336 17.254-33.668c-.035.16-.062.324-.078.488-.117 1.191.305 2.375 1.152 3.223l9.59 9.59-27.918 22.668zm18.16-35.438 13.238-25.828 4.176 14.059-16.637 11.094c-.289.195-.551.421-.777.675zm-61.785-112.535h80.03c-2.01 3.968-15.951 10.281-40.015 10.281s-38.005-6.313-40.015-10.281zm82.707-8h-85.383l-1.48-4.172h88.344zm5.308 28c0 2.207-1.793 4-4 4h-.203c.12-1.319.203-2.65.203-4v-4c2.207 0 4 1.793 4 4zm-91.785-59.149 34.695-19.824c5.609-3.203 12.57-3.203 18.18 0l34.695 19.824c5.285 3.023 7.465 9.523 5.066 15.121l-1.652 3.855h-94.398l-1.652-3.855c-2.399-5.597-.219-12.097 5.066-15.121zm-.215 63.149c-2.207 0-4-1.793-4-4s1.793-4 4-4v4c0 1.35.083 2.681.203 4zm8-4v-7.724c9.298 3.965 22.687 6.005 36 6.005s26.702-2.041 36-6.005v7.724c0 19.852-16.148 36-36 36s-36-16.149-36-36zm36 44c4.164 0 8.18-.62 12-1.706v4.046l-12 9.547-12-9.547v-4.046c3.82 1.086 7.836 1.706 12 1.706zm-44.965 12h4.727l-2.091 5.985-11.956 5.296c-1.875.828-3.953.871-5.855.141-1.253-.485-2.308-1.294-3.137-2.305 4.211-5.528 10.842-9.117 18.312-9.117zm-23.035 23.035c0-2.267.342-4.453.955-6.523 1.218.96 2.538 1.8 4.025 2.375 1.828.703 3.738 1.059 5.641 1.059 2.156 0 4.305-.453 6.336-1.352l5.098-2.258-3.074 8.801c-.602 1.723.039 3.637 1.559 4.648l15.035 10.023-9.281 9.277c-.801.801-1.227 1.902-1.168 3.035.059 1.129.594 2.184 1.477 2.898l30.438 24.719h-57.041zm132 56.703h-54.429l30.441-24.719c.883-.715 1.418-1.77 1.477-2.898.059-1.133-.367-2.234-1.168-3.035l-9.277-9.277 15.035-10.023c1.461-.973 2.117-2.785 1.617-4.469l-2.597-8.741 7.229 3.202c1.672.742 3.422 1.09 5.141 1.09 2.181 0 4.304-.59 6.19-1.635.207 1.24.341 2.505.341 3.803z"/><path d="m144.79 81.014c7.621 0 13.82-6.199 13.82-13.82s-6.199-13.82-13.82-13.82c-7.617 0-13.816 6.199-13.816 13.82s6.199 13.82 13.816 13.82zm0-19.641c3.211 0 5.82 2.609 5.82 5.82s-2.609 5.82-5.82 5.82c-3.207 0-5.816-2.609-5.816-5.82s2.609-5.82 5.816-5.82z"/><path d="m104.649 75.346c.699 0 1.41-.184 2.055-.57l5.863-3.516c1.895-1.137 2.508-3.594 1.371-5.488s-3.59-2.508-5.488-1.371l-5.863 3.516c-1.895 1.137-2.508 3.594-1.371 5.488.75 1.249 2.074 1.941 3.433 1.941z"/></svg>